# xmcd
#
# Track frame offsets: 
#        150
#        9784
#        21497
#        31186
#        44141
#        55452
#        71808
#        82237
#        94510
#        105841
#        117571
#        130630
#        146494
#        152535
#        173567
#
# Disc length: 2497 seconds
#
# Revision: 3
# Processed by: cddbd v1.5.2PL0 Copyright (c) Steve Scherf et al.
# Submitted via: ExactAudioCopyFreeDBPlugin 1.0
#
DISCID=c109bf0f
DTITLE=Waylon Jennings - The Journey - Six Strings Away - Vol. 6
DYEAR=1999
DGENRE=Country
TTITLE0=I'm a Long Way From Home (Guitar Version)
TTITLE1=What Makes A Man Wander
TTITLE2=John's Back In Town
TTITLE3=Cedartown Georgia
TTITLE4=Something's Wrong In California
TTITLE5=The Days Of Sand And Shovels
TTITLE6=Just To Satisfy You
TTITLE7=For The Kids
TTITLE8=Change My Mind
TTITLE9=Lonely Weekends
TTITLE10=Don't Play the Game
TTITLE11=The House Song
TTITLE12=The Same Old Lover Man
TTITLE13=Ned Kelly
TTITLE14=Shadows Of the Gallows
EXTD=
EXTT0=
EXTT1=
EXTT2=
EXTT3=
EXTT4=
EXTT5=
EXTT6=
EXTT7=
EXTT8=
EXTT9=
EXTT10=
EXTT11=
EXTT12=
EXTT13=
EXTT14=
PLAYORDER=
